# AST/ASF file generated using VICON BodyLanguage
# -----------------------------------------------
:version 1.10
:name VICON
:units
  mass 1.0
  length 0.45
  angle deg
:documentation
   .ast/.asf automatically generated from VICON data using
   VICON BodyBuilder and BodyLanguage model FoxedUp or BRILLIANT.MOD
:root
   order TX TY TZ RX RY RZ
   axis XYZ
   position 0 0 0  
   orientation 0 0 0 
:bonedata
  begin
     id 1 
     name lhipjoint
     direction 0.561001 -0.76473 0.316963 
     length 2.4722 
     axis 0 0 0  XYZ
  end
  begin
     id 2 
     name lfemur
     direction 0.34202 -0.939693 0  
     length 7.59403  
     axis 0 0 20  XYZ
    dof rx ry rz
    limits (-160.0 20.0)
           (-70.0 70.0)
           (-60.0 70.0)
  end
  begin
     id 3 
     name ltibia
     direction 0.34202 -0.939693 0   
     length 7.89655   
     axis 0 0 20   XYZ
    dof rx
    limits (-10.0 170.0)
  end
  begin
     id 4 
     name lfoot
     direction 0.061296 -0.168409 0.98381   
     length 2.73287   
     axis -90 7.62852e-016 20   XYZ
    dof rx rz
    limits (-45.0 90.0)
           (-70.0 20.0)
  end
  begin
     id 5 
     name ltoes
     direction 1.53547e-011 -4.21984e-011 1   
     length 1.37057   
     axis -90 7.62852e-016 20   XYZ
    dof rx
    limits (-90.0 20.0)
  end
  begin
     id 6 
     name rhipjoint
     direction -0.559611 -0.765599 0.317323   
     length 2.46939  
     axis 0 0 0  XYZ 
  end
  begin
     id 7 
     name rfemur
     direction -0.34202 -0.939693 0   
     length 7.53712   
     axis 0 0 -20   XYZ
    dof rx ry rz
    limits (-160.0 20.0)
           (-70.0 70.0)
           (-70.0 60.0)
  end
  begin
     id 8 
     name rtibia
     direction -0.34202 -0.939693 0   
     length 8.12549   
     axis 0 0 -20   XYZ
    dof rx
    limits (-10.0 170.0)
 end
 begin
     id 9 
     name rfoot
     direction -0.066984 -0.184037 0.980634   
     length 2.67541  
     axis -90 -7.62852e-016 -20   XYZ
    dof rx rz
    limits (-45.0 90.0)
           (-20.0 70.0)
  end
  begin
     id 10 
     name rtoes
     direction -1.53549e-011 -4.21786e-011 1   
     length 1.34085   
     axis -90 -7.62852e-016 -20   XYZ
    dof rx
    limits (-90.0 20.0)
  end
  begin
     id 11 
     name lowerback
     direction -0.0522728 0.992594 -0.109658   
     length 2.05633   
     axis 0 0 0   XYZ
    dof rx ry rz
    limits (-20.0 45.0)
           (-30.0 30.0)
           (-30.0 30.0)
  end
  begin
     id 12 
     name upperback
     direction 0.00589338 0.999977 0.00335704   
     length 2.05845   
     axis 0 0 0   XYZ
    dof rx ry rz
    limits (-20.0 45.0)
           (-30.0 30.0)
           (-30.0 30.0)
  end
  begin
     id 13 
     name thorax
     direction 0.0292928 0.998059 0.0549487   
     length 2.09281   
     axis 0 0 0   XYZ
    dof rx ry rz
    limits (-20.0 45.0)
           (-30.0 30.0)
           (-30.0 30.0)
  end
  begin
     id 14 
     name lowerneck
     direction 0.0356368 0.980775 0.191858   
     length 1.84767   
     axis 0 0 0   XYZ
    dof rx ry rz
    limits (-20.0 45.0)
           (-30.0 30.0)
           (-30.0 30.0)
  end
  begin
     id 15 
     name upperneck
     direction -0.0227605 0.98931 -0.14404   
     length 1.89582   
     axis 0 0 0   XYZ
    dof rx ry rz
    limits (-20.0 45.0)
           (-30.0 30.0)
           (-30.0 30.0)
  end
  begin
     id 16
     name head
     direction -0.00932985 0.997511 -0.0698904  
     length 1.90213  
     axis 0 0 0   XYZ
    dof rx ry rz
    limits (-20.0 45.0)
           (-30.0 30.0)
           (-30.0 30.0)
  end
  begin
     id 17 
     name lclavicle
     direction 0.873442 0.479511 0.0846686  
     length 3.41193  
     axis 0 0 0   XYZ
    dof ry rz
    limits (-20.0 10.0)
           (0.0 20.0)
  end
  begin
     id 18 
     name lhumerus
     direction 1 -4.4897e-011 -5.62117e-018   
     length 5.59864   
     axis 180 -30 -90   XYZ
    dof rx ry rz
    limits (-60.0 90.0)
           (-90.0 90.0)
           (-90.0 90.0)
  end
  begin
     id 19
     name lradius
     direction 1 -4.48966e-011 -6.26295e-027   
     length 3.59542   
     axis 180 -30 -90   XYZ
    dof rx
    limits (-10.0 170.0)
  end
  begin
     id 20
     name lwrist
     direction 1 -4.48947e-011 -1.74096e-026   
     length 1.79771   
     axis 1.04567e-014 90 90   XYZ
    dof ry
    limits (-180.0 0.0)
 end
  begin
     id 21 
     name lhand
     direction 1 -4.49085e-011 -3.48469e-026   
     length 0.572014   
     axis 2.22196e-014 90 90   XYZ
    dof rx rz
    limits (-90.0 90.0)
           (-45.0 45.0)
  end
  begin
     id 22 
     name lfingers
     direction 1 -4.48884e-011 -6.96135e-026   
     length 0.461173   
     axis 4.44383e-014 90 90   XYZ
    dof rx
    limits (0.0 90.0)
  end
  begin
     id 23
     name lthumb
     direction 0.707107 -6.34976e-011 0.707107   
     length 0.662154   
     axis -90 45 -5.4397e-014   XYZ
    dof rx rz
    limits (-45.0 45.0)
           (-45.0 45.0)
  end
  begin
     id 24 
     name rclavicle
     direction -0.890242 0.443271 0.104786   
     length 3.46753  
     axis 0 0 0   XYZ 
    dof ry rz
    limits (-10.0 20.0)
           (-20.0 0.0)
  end
  begin
     id 25 
     name rhumerus
     direction -1 -4.48963e-011 -5.41723e-018  
     length 5.8094   
     axis 180 30 90   XYZ
    dof rx ry rz
    limits (-90.0 60.0)
           (-90.0 90.0)
           (-90.0 90.0)
  end
  begin
     id 26 
     name rradius
     direction -1 -4.48958e-011 -6.51059e-027   
     length 3.66953   
     axis 180 30 90   XYZ
    dof rx
    limits (-10.0 170.0)
  end
  begin
     id 27 
     name rwrist
     direction -1 -4.48975e-011 -1.74124e-026   
     length 1.83476   
     axis 1.04567e-014 -90 -90   XYZ
    dof ry
    limits (-180.0 0.0)
  end
  begin
     id 28
     name rhand
     direction -1 -4.49013e-011 -3.48326e-026   
     length 0.57843   
     axis 2.22196e-014 -90 -90   XYZ
    dof rx rz
    limits (-90.0 90.0)
           (-45.0 45.0)
  end
  begin
     id 29
     name rfingers
     direction -1 -4.49023e-011 -6.9669e-026   
     length 0.466345   
     axis 4.44383e-014 -90 -90   XYZ
    dof rx
    limits (0.0 90.0)
  end
  begin
     id 30
     name rthumb
     direction -0.707107 -6.34926e-011 0.707107   
     length 0.669581   
     axis -90 -45 5.4397e-014   XYZ
    dof rx rz
    limits (-45.0 45.0)
           (-45.0 45.0)
  end
:hierarchy
  begin
    root lhipjoint rhipjoint lowerback
    lhipjoint lfemur
    lfemur ltibia
    ltibia lfoot
    lfoot ltoes
    rhipjoint rfemur
    rfemur rtibia
    rtibia rfoot
    rfoot rtoes
    lowerback upperback
    upperback thorax
    thorax lowerneck lclavicle rclavicle
    lowerneck upperneck
    upperneck head
    lclavicle lhumerus
    lhumerus lradius
    lradius lwrist
    lwrist lhand lthumb
    lhand lfingers
    rclavicle rhumerus
    rhumerus rradius
    rradius rwrist
    rwrist rhand rthumb
    rhand rfingers
  end

#!OML:ASF H:\SkateBoarding\Project 1\Capture day 1\Session 1\Skater.ASF
:FULLY-SPECIFIED
:DEGREES
379
root 5.21239 17.6456 27.6779 10.3613 31.1303 -2.68308
lowerback 9.83615 -2.62084 -0.0551064
upperback -3.09197 -3.41572 1.21837
thorax -8.73319 -1.61672 1.91189
lowerneck -17.5244 3.07978 5.41337
upperneck 23.6803 3.30401 -1.86135
head 10.6387 1.79677 -1.09878
rclavicle 1.38652e-014 2.20651e-014
rhumerus 0.826631 0.73345 -71.1243
rradius 25.9792
rwrist -5.61215
rhand -36.3901 -4.45644
rfingers 7.12502
rthumb -9.48626 -34.2229
lclavicle 1.38652e-014 2.20651e-014
lhumerus 32.1716 -55.5123 77.6973
lradius 87.5934
lwrist 38.407
lhand -24.4635 14.0331
lfingers 7.12502
lthumb 2.02972 44.0032
rfemur -51.0849 -2.55818 20.2174
rtibia 70.4878
rfoot -22.7258 20.6392
rtoes -8.49335
lfemur 9.48321 -15.7363 -5.46314
ltibia 49.1592
lfoot -3.97897 9.80554
ltoes 2.24975
380
root 5.19397 17.7314 27.9956 9.94294 31.3992 -2.85059
lowerback 9.92391 -2.52044 0.0666205
upperback -3.09122 -3.26533 1.20373
thorax -8.79549 -1.54968 1.80754
lowerneck -17.5865 3.00664 5.28965
upperneck 23.8534 3.17621 -1.62872
head 10.7028 1.75783 -1.01226
rclavicle -4.77083e-014 -1.39149e-014
rhumerus 0.653674 -0.0455555 -71.6108
rradius 25.8101
rwrist -5.17775
rhand -36.5385 -4.59946
rfingers 7.12502
rthumb -9.62944 -34.3594
lclavicle -4.77083e-014 -1.39149e-014
lhumerus 30.7305 -56.6125 78.5773
lradius 87.4047
lwrist 37.9792
lhand -24.278 13.7502
lfingers 7.12502
lthumb 2.20886 43.7186
rfemur -49.8776 -2.35071 20.4807
rtibia 69.375
rfoot -23.0133 19.9556
rtoes -8.82742
lfemur 7.955 -14.794 -5.37501
ltibia 51.9737
lfoot -4.93607 7.67698
ltoes 0.990375
381
root 5.17461 17.8158 28.3135 9.54607 31.6844 -2.99071
lowerback 10.0002 -2.42485 0.167596
upperback -3.09055 -3.12636 1.16267
thorax -8.85063 -1.48816 1.68761
lowerneck -17.6466 2.92618 5.15738
upperneck 23.9792 3.03091 -1.36484
head 10.7486 1.7137 -0.915492
rclavicle -1.03815e-013 1.0138e-014
rhumerus 0.356497 -0.641252 -72.122
rradius 25.8377
rwrist -5.07598
rhand -36.7378 -4.70913
rfingers 7.12502
rthumb -9.82169 -34.4601
lclavicle -1.03815e-013 1.0138e-014
lhumerus 29.1194 -57.7211 79.5356
lradius 87.2486
lwrist 37.5446
lhand -24.072 13.462
lfingers 7.12502
lthumb 2.4078 43.4281
rfemur -48.7097 -2.08902 20.7037
rtibia 68.3386
rfoot -23.3784 19.2483
rtoes -9.14038
lfemur 6.383 -13.8675 -5.3415
ltibia 54.7533
lfoot -6.03165 5.53595
ltoes -0.722329
382
root 5.15416 17.8985 28.6316 9.17776 31.9826 -3.11121
lowerback 10.0492 -2.33087 0.237478
upperback -3.08895 -2.99505 1.10836
thorax -8.88703 -1.42947 1.57049
lowerneck -17.7027 2.83793 5.01228
upperneck 24.0527 2.87464 -1.09054
head 10.7742 1.66431 -0.814433
rclavicle 3.18055e-014 -1.94809e-014
rhumerus -0.0557253 -1.01985 -72.6386
rradius 26.0576
rwrist -5.30591
rhand -36.9743 -4.77727
rfingers 7.12502
rthumb -10.0498 -34.5173
lclavicle 3.18055e-014 -1.94809e-014
lhumerus 27.3367 -58.82 80.5899
lradius 87.119
lwrist 37.0878
lhand -23.8366 13.1658
lfingers 7.12502
lthumb 2.63519 43.1292
rfemur -47.5781 -1.76935 20.8973
rtibia 67.3105
rfoot -23.7765 18.4776
rtoes -9.41483
lfemur 4.81097 -12.9453 -5.35239
ltibia 57.3562
lfoot -7.29194 3.50269
ltoes -2.8229
383
root 5.13354 17.9796 28.9495 8.84019 32.3172 -3.19063
lowerback 10.0815 -2.2436 0.273018
upperback -3.0841 -2.87914 1.03626
thorax -8.90843 -1.3772 1.45517
lowerneck -17.7596 2.73813 4.85112
upperneck 24.0829 2.70469 -0.811082
head 10.7839 1.60747 -0.710866
rclavicle 8.49804e-015 -1.19271e-015
rhumerus -0.579473 -1.16347 -73.144
rradius 26.4594
rwrist -5.83408
rhand -37.2107 -4.80892
rfingers 7.12502
rthumb -10.2779 -34.5378
lclavicle 8.49804e-015 -1.19271e-015
lhumerus 25.3794 -59.9078 81.7567
lradius 86.999
lwrist 36.5986
lhand -23.5678 12.8362
lfingers 7.12502
lthumb 2.89479 42.7963
rfemur -46.4689 -1.43305 21.0438
rtibia 66.2945
rfoot -24.1938 17.6704
rtoes -9.66423
lfemur 3.24778 -12.0509 -5.43306
ltibia 59.7698
lfoot -8.75685 1.62848
ltoes -5.21197
384
root 5.11222 18.0588 29.2678 8.51583 32.6959 -3.24796
lowerback 10.1096 -2.17431 0.314936
upperback -3.07841 -2.7895 0.929545
thorax -8.92775 -1.33922 1.30376
lowerneck -17.8182 2.63419 4.69939
upperneck 24.0834 2.52368 -0.524269
head 10.7836 1.54708 -0.607885
rclavicle -6.76365e-014 -1.63003e-014
rhumerus -1.21791 -1.06946 -73.6789
rradius 27.0257
rwrist -6.60621
rhand -37.4322 -4.80309
rfingers 7.12502
rthumb -10.4916 -34.5213
lclavicle -6.76365e-014 -1.63003e-014
lhumerus 23.2361 -60.9777 83.0025
lradius 86.8837
lwrist 36.0895
lhand -23.2704 12.4816
lfingers 7.12502
lthumb 3.18196 42.4376
rfemur -45.373 -1.07976 21.1679
rtibia 65.2945
rfoot -24.6438 16.8167
rtoes -9.90829
lfemur 1.70691 -11.178 -5.55712
ltibia 61.9804
lfoot -10.4275 -0.0521972
ltoes -7.72826
385
root 5.09028 18.1355 29.5865 8.20365 33.1281 -3.28291
lowerback 10.1266 -2.11476 0.327158
upperback -3.06566 -2.71775 0.815411
thorax -8.93112 -1.30871 1.16341
lowerneck -17.8906 2.52072 4.54006
upperneck 24.0611 2.33545 -0.255084
head 10.7783 1.48024 -0.511003
rclavicle 9.0447e-015 -9.14409e-015
rhumerus -1.95239 -0.733107 -74.1945
rradius 27.7431
rwrist -7.56104
rhand -37.6211 -4.77283
rfingers 7.12502
rthumb -10.6738 -34.4817
lclavicle 9.0447e-015 -9.14409e-015
lhumerus 20.9342 -62.0186 84.358
lradius 86.7542
lwrist 35.5669
lhand -22.946 12.1017
lfingers 7.12502
lthumb 3.49528 42.0528
rfemur -44.2904 -0.730167 21.2722
rtibia 64.3158
rfoot -25.1126 15.936
rtoes -10.1559
lfemur 0.194102 -10.3218 -5.72165
ltibia 63.9769
lfoot -12.2836 -1.51434
ltoes -10.231
386
root 5.06767 18.2095 29.9057 7.90493 33.6199 -3.29205
lowerback 10.1379 -2.07244 0.322409
upperback -3.04981 -2.67316 0.681712
thorax -8.92732 -1.29113 1.0162
lowerneck -17.9759 2.40119 4.38187
upperneck 24.0288 2.14013 0.00555231
head 10.7727 1.4091 -0.418375
rclavicle 5.56597e-015 2.38542e-015
rhumerus -2.78433 -0.135447 -74.7116
rradius 28.5995
rwrist -8.67161
rhand -37.7744 -4.71347
rfingers 7.12502
rthumb -10.8217 -34.4147
lclavicle 5.56597e-015 2.38542e-015
lhumerus 18.4606 -63.0258 85.8119
lradius 86.6011
lwrist 35.05
lhand -22.6072 11.7089
lfingers 7.12502
lthumb 3.82243 41.6544
rfemur -43.2242 -0.403799 21.3575
rtibia 63.3655
rfoot -25.5972 15.0377
rtoes -10.3749
lfemur -1.28094 -9.47757 -5.92697
ltibia 65.7473
lfoot -14.2778 -2.73536
ltoes -12.5483
387
root 5.04418 18.2803 30.2256 7.61915 34.1762 -3.27847
lowerback 10.1405 -2.04215 0.29138
upperback -3.03013 -2.64935 0.535772
thorax -8.91328 -1.28264 0.873934
lowerneck -18.0702 2.26924 4.21709
upperneck 23.9881 1.93261 0.253418
head 10.7663 1.33015 -0.331035
rclavicle 7.00219e-014 6.36111e-015
rhumerus -3.71197 0.694176 -75.2211
rradius 29.5893
rwrist -9.87701
rhand -37.8921 -4.61435
rfingers 7.12502
rthumb -10.9352 -34.3096
lclavicle 7.00219e-014 6.36111e-015
lhumerus 15.8296 -64.0025 87.3689
lradius 86.413
lwrist 34.5613
lhand -22.2667 11.3168
lfingers 7.12502
lthumb 4.15122 41.2561
rfemur -42.179 -0.115177 21.4301
rtibia 62.4492
rfoot -26.0899 14.1349
rtoes -10.5875
lfemur -2.71393 -8.63965 -6.16572
ltibia 67.2849
lfoot -16.3382 -3.70416
ltoes -14.5869
388
root 5.01957 18.3474 30.5464 7.34891 34.8014 -3.23971
lowerback 10.1345 -2.02142 0.211657
upperback -3.00723 -2.64493 0.390245
thorax -8.88827 -1.28093 0.762434
lowerneck -18.175 2.12041 4.02761
upperneck 23.9445 1.71228 0.487832
head 10.7614 1.24145 -0.24627
rclavicle 1.75427e-014 9.54166e-015
rhumerus -4.73096 1.76009 -75.7099
rradius 30.7082
rwrist -11.1584
rhand -38.0045 -4.45365
rfingers 7.12502
rthumb -11.0436 -34.1431
lclavicle 1.75427e-014 9.54166e-015
lhumerus 13.0512 -64.9411 89.0438
lradius 86.1779
lwrist 34.1218
lhand -21.9447 10.9482
lfingers 7.12502
lthumb 4.46215 40.8811
rfemur -41.1603 0.120807 21.4907
rtibia 61.5732
rfoot -26.5895 13.2339
rtoes -10.7852
lfemur -4.0984 -7.80686 -6.43786
ltibia 68.5816
lfoot -18.3869 -4.43214
ltoes -16.2642
389
root 4.99361 18.4106 30.8683 7.07987 35.4945 -3.19513
lowerback 10.1264 -2.00999 0.0981605
upperback -2.98234 -2.65732 0.246054
thorax -8.85818 -1.2855 0.674181
lowerneck -18.2821 1.95179 3.81216
upperneck 23.903 1.47281 0.720675
head 10.758 1.14159 -0.160575
rclavicle -9.93923e-016 2.78299e-015
rhumerus -5.84209 3.00664 -76.1931
rradius 31.9438
rwrist -12.4093
rhand -38.0711 -4.23496
rfingers 7.12502
rthumb -11.1079 -33.921
lclavicle -9.93923e-016 2.78299e-015
lhumerus 10.1255 -65.8425 90.8259
lradius 85.8949
lwrist 33.7543
lhand -21.6566 10.6325
lfingers 7.12502
lthumb 4.74035 40.5594
rfemur -40.1655 0.30224 21.5583
rtibia 60.7385
rfoot -27.0956 12.3405
rtoes -10.9721
lfemur -5.42192 -6.97585 -6.72322
ltibia 69.6332
lfoot -20.3572 -4.95295
ltoes -17.5061
390
root 4.96666 18.4699 31.1917 6.81827 36.2563 -3.14151
lowerback 10.1143 -2.0057 -0.0485868
upperback -2.95869 -2.68351 0.102604
thorax -8.82546 -1.29492 0.607712
lowerneck -18.3877 1.75885 3.56233
upperneck 23.8654 1.2104 0.953041
head 10.7563 1.02827 -0.0727245
rclavicle -3.68746e-014 1.59028e-015
rhumerus -7.05063 4.39989 -76.6788
rradius 33.293
rwrist -13.6093
rhand -38.128 -3.92507
rfingers 7.12502
rthumb -11.1627 -33.6081
lclavicle -3.68746e-014 1.59028e-015
lhumerus 7.04622 -66.7071 92.7325
lradius 85.5576
lwrist 33.475
lhand -21.4021 10.3917
lfingers 7.12502
lthumb 4.98608 40.3131
rfemur -39.1996 0.417077 21.6286
rtibia 59.9439
rfoot -27.6008 11.4662
rtoes -11.1279
lfemur -6.68332 -6.14871 -7.02805
ltibia 70.4355
lfoot -22.2127 -5.27264
ltoes -18.3974
391
root 4.93869 18.5253 31.5165 6.53715 37.0867 -3.11019
lowerback 10.1094 -2.00569 -0.207745
upperback -2.93587 -2.71627 -0.0331308
thorax -8.79693 -1.30657 0.557894
lowerneck -18.4797 1.53612 3.27752
upperneck 23.8323 0.91661 1.19106
head 10.7543 0.898357 0.0182796
rclavicle -1.39149e-015 -2.38542e-015
rhumerus -8.35681 5.89384 -77.1693
rradius 34.7435
rwrist -14.6864
rhand -38.1888 -3.52174
rfingers 7.12502
rthumb -11.2213 -33.2016
lclavicle -1.39149e-015 -2.38542e-015
lhumerus 3.80971 -67.5378 94.7737
lradius 85.1568
lwrist 33.2766
lhand -21.1789 10.2269
lfingers 7.12502
lthumb 5.20158 40.143
rfemur -38.2493 0.468539 21.7284
rtibia 59.1824
rfoot -28.1076 10.6158
rtoes -11.2459
lfemur -7.86782 -5.3293 -7.32388
ltibia 70.9882
lfoot -23.9363 -5.4124
ltoes -18.9865
392
root 4.90978 18.577 31.8434 6.22409 37.9793 -3.11895
lowerback 10.1139 -2.00931 -0.375995
upperback -2.91419 -2.75361 -0.152674
thorax -8.77385 -1.31938 0.531577
lowerneck -18.5558 1.28439 2.95709
upperneck 23.8063 0.594423 1.42843
head 10.7532 0.752381 0.110745
rclavicle 1.07393e-013 3.10104e-014
rhumerus -9.75478 7.43569 -77.6766
rradius 36.2789
rwrist -15.5709
rhand -38.2457 -3.02146
rfingers 7.12502
rthumb -11.2762 -32.6984
lclavicle 1.07393e-013 3.10104e-014
lhumerus 0.411564 -68.3235 96.961
lradius 84.6902
lwrist 33.1579
lhand -20.9898 10.145
lfingers 7.12502
lthumb 5.38421 40.0566
rfemur -37.3111 0.46812 21.8706
rtibia 58.4466
rfoot -28.6227 9.77896
rtoes -11.3394
lfemur -8.96599 -4.51633 -7.59601
ltibia 71.2891
lfoot -25.5403 -5.38712
ltoes -19.3475
393
root 4.88034 18.6252 32.172 5.86831 38.9392 -3.17688
lowerback 10.1358 -2.01698 -0.537232
upperback -2.89429 -2.79431 -0.258265
thorax -8.76242 -1.33365 0.517461
lowerneck -18.6123 1.00246 2.60222
upperneck 23.7912 0.240278 1.67101
head 10.754 0.589601 0.206126
rclavicle -8.29926e-015 1.19271e-014
rhumerus -11.2396 8.98428 -78.2033
rradius 37.8839
rwrist -16.2259
rhand -38.2932 -2.44203
rfingers 7.12502
rthumb -11.3221 -32.1164
lclavicle -8.29926e-015 1.19271e-014
lhumerus -3.14936 -69.0646 99.3031
lradius 84.1441
lwrist 33.1014
lhand -20.8339 10.1262
lfingers 7.12502
lthumb 5.53473 40.0339
rfemur -36.3774 0.404288 22.0581
rtibia 57.7301
rfoot -29.1399 8.96799
rtoes -11.3951
lfemur -9.96969 -3.72777 -7.84152
ltibia 71.3392
lfoot -27.0525 -5.20893
ltoes -19.5577
